<?xml version="1.0" encoding="utf-8"?>
<!-- Generator: Adobe Illustrator 16.0.0, SVG Export Plug-In . SVG Version: 6.00 Build 0)  -->
<!DOCTYPE svg PUBLIC "-//W3C//DTD SVG 1.1//EN" "http://www.w3.org/Graphics/SVG/1.1/DTD/svg11.dtd">
<svg version="1.1" id="Layer_1" xmlns="http://www.w3.org/2000/svg" xmlns:xlink="http://www.w3.org/1999/xlink" x="0px" y="0px"
	 width="565px" height="170.148px" viewBox="0 0 565 170.148" enable-background="new 0 0 565 170.148" xml:space="preserve">
<g>
	<defs>
		<rect id="SVGID_1_" width="426.143" height="170.148"/>
	</defs>
	<clipPath id="SVGID_2_">
		<use xlink:href="#SVGID_1_"  overflow="visible"/>
	</clipPath>
	<path clip-path="url(#SVGID_2_)" fill="#7DAD03" d="M39.403,80.97c13.722-24.703,40.071-41.434,70.336-41.434
		c22.687,0,43.166,9.413,57.786,24.522c-7.116-28.002-28.128-50.443-55.259-59.594C75.83,14.243,47.432,43.857,39.403,80.97"/>
	<path clip-path="url(#SVGID_2_)" fill="#7DAD03" d="M44.334,140.021c3.024,9.846,8.215,18.744,15.014,26.152
		c0.16,0.053,0.323,0.105,0.483,0.158 M59.835,166.339c7.975,2.475,16.451,3.809,25.238,3.809c46.084,0,83.584-36.652,85.006-82.393
		c-11.537-21.531-34.252-36.213-60.339-36.213c-37.724,0-68.413,30.691-68.413,68.412c0,6.98,1.054,13.719,3.007,20.066"/>
	<path clip-path="url(#SVGID_2_)" fill="#7DAD03" d="M59.835,166.339c-0.002-0.004-0.002-0.004-0.004-0.008
		c-0.16-0.053-0.323-0.105-0.483-0.158c0.004,0.002,0.005,0.002,0.007,0.006C59.516,166.231,59.673,166.287,59.835,166.339"/>
	<path clip-path="url(#SVGID_2_)" fill="#7DAD03" d="M89.518,0.113C88.046,0.039,86.563,0,85.073,0C38.087,0,0,38.088,0,85.07
		c0,29.463,14.978,55.42,37.731,70.688c0.334,0.226,0.679,0.433,1.017,0.653c-0.01-0.018-0.017-0.033-0.026-0.049
		c-2.113-3.902-4.004-7.943-5.655-12.105c-5.136-12.941-7.962-27.053-7.962-41.822C25.104,57.345,51.414,18.402,89.518,0.113"/>
	<rect x="249.876" y="64.696" clip-path="url(#SVGID_2_)" fill="#474747" width="8.15" height="58.295"/>
	<rect x="249.876" y="42.783" clip-path="url(#SVGID_2_)" fill="#474747" width="8.15" height="12.353"/>
	<path clip-path="url(#SVGID_2_)" fill="#474747" d="M370.682,66.113c-0.034-0.023-0.074-0.046-0.118-0.072l0.005-0.013
		l-0.307-0.147c-0.164-0.084-0.363-0.182-0.612-0.302l-0.005-0.001l-0.004,0.005l-0.02-0.017c-0.366-0.177-0.607-0.293-0.774-0.369
		l-0.17-0.085v0.005c-0.115-0.048-0.163-0.063-0.209-0.067c-5.884-2.45-13.517-2.654-19.741-0.525
		c-6.452,2.211-11.905,7.197-14.953,13.678c-5.725,12.167-4.475,31.096,7.526,40.461c4.497,3.513,10.396,5.445,16.608,5.445
		c2.161,0,4.332-0.231,6.448-0.687c7.61-1.635,14.218-6.996,17.674-14.346C388.618,95.076,385.522,74.202,370.682,66.113
		 M338.565,91.522c0.611-8.668,4.699-15.926,10.94-19.414l-0.003-0.002c0.009-0.002,0.015-0.007,0.022-0.011
		c2.411-1.348,5.245-2.061,8.203-2.061c3.981,0,7.826,1.262,10.831,3.554c5.056,3.857,8.183,10.599,8.57,18.497
		c0.348,7.023-1.721,16.387-8.57,21.608c-2.97,2.266-6.757,3.513-10.655,3.513c-3.896,0-7.686-1.247-10.658-3.513
		C341.25,109.126,337.921,100.631,338.565,91.522"/>
	<path clip-path="url(#SVGID_2_)" fill="#474747" d="M322.528,91.044V43.018h-7.97v50.746l-0.021,0.573
		c-0.104,4.163-0.89,8.131-2.277,11.473c-2.957,7.125-9.354,11.38-17.102,11.38l-0.49-0.005
		c-7.295-0.169-13.398-5.194-15.918-13.117c-2.708-8.509-2.021-18.104,1.787-25.047c1.838-3.347,4.533-5.999,7.588-7.473
		c3.063-1.484,7.004-1.851,11.185-1.069l0.696,0.13v-7.043l-0.494-0.084c-1.535-0.265-3.104-0.401-4.666-0.401
		c-5.19,0-10.036,1.439-14.015,4.161c-4.504,3.087-7.967,7.928-9.819,13.706c-0.006,0.011-0.01,0.024-0.021,0.034l-0.009-0.001
		l-0.01,0.039c-0.403,0.733-0.586,2.061-0.6,2.19c-3.127,12.467-1.21,28.913,10.465,36.806c3.95,2.67,8.713,4.082,13.784,4.082
		c9.582,0,18.672-5.018,23.15-12.783C321.072,105.583,322.811,98.191,322.528,91.044"/>
	<path clip-path="url(#SVGID_2_)" fill="#474747" d="M229.374,49.75c0.184-0.004,0.35-0.007,0.492-0.015
		c0.052-0.017,0.097-0.002,0.156,0c2.329,0.016,4.716,0.467,7.504,1.417l1.817,0.621V43.98l-0.923-0.322
		c-2.66-0.927-5.535-1.417-8.312-1.417c-4.294,0-8.088,1.154-10.978,3.338c-5.61,4.242-6.784,11.312-6.78,16.497v3.942h-7.866v7.427
		h7.866v49.545h7.961V73.445h18.923v-7.427h-18.923v-3.854C220.428,53.739,223.136,50.022,229.374,49.75"/>
	<path clip-path="url(#SVGID_2_)" fill="#474747" d="M424.85,65.172c-0.005,0-0.015,0-0.021-0.002h-0.006l-0.159-0.009v0.002
		c-8.701-0.456-17.23,4.288-22.554,12.286V66.019h-7.956v56.972h7.956V99.397c0-5.028,0.968-12.23,5.585-17.979
		c3.896-4.857,10.082-7.756,16.542-7.756h1.907V65.25L424.85,65.172z"/>
</g>
<g>
	<g>
		<path fill="#7CAC03" d="M406.657,22.582v-0.083c3.158-0.63,5.287-3.063,5.287-6.546c0-6.422-5.136-7.514-8.559-7.514h-9.28v29.296
			h9.28c3.347,0,9.358-1.091,9.358-8.478C412.744,25.648,410.271,22.962,406.657,22.582z M399.429,13.055h2.057
			c2.435,0,5.133,0.253,5.133,3.652c0,3.022-2.774,3.569-5.021,3.569h-2.169V13.055z M401.941,33.119h-2.513v-8.481h2.513
			c2.662,0,5.476,0.588,5.476,4.41C407.417,32.448,404.414,33.119,401.941,33.119z M422.664,24.891h9.472v-4.615h-9.472v-7.221
			h10.348V8.438h-15.674v29.296h15.748v-4.615h-10.422V24.891z M435.705,13.055h7.609v24.68h5.325v-24.68h7.606V8.438h-20.541
			V13.055z M473.245,8.438h-6.012l-10.347,29.296h5.516l2.319-6.716h10.767l2.282,6.716h5.896L473.245,8.438z M466.244,26.403
			l3.843-12.088h0.075l3.842,12.088H466.244z"/>
	</g>
</g>
<image display="none" overflow="visible" opacity="0.5" width="180" height="63" xlink:href="3B092C9F.jpg"  transform="matrix(2.687 0 0 2.687 0 0)">
</image>
</svg>
